<svg xmlns="http://www.w3.org/2000/svg" viewBox="0 0 255.12 254.92"><defs><style>.cls-2{fill:#fff}</style></defs><g id="レイヤー_2" data-name="レイヤー 2"><g id="レイヤー_1-2" data-name="レイヤー 1"><path fill="#363581" d="M0 0h255.12v254.92H0z"/><path class="cls-2" d="M178.8 108.22l15.9 43h-8.08l-16.16-42.74h-4.75v43h-8.5V71.73h22.68c15.8 0 21.54 33.27-1.09 36.49zm-13-28.93v21.63H177c13-2.87 10.16-21.37-.26-21.63-2.35-.06-10.97 0-10.97 0z"/><path class="cls-2" d="M197.83 71.99v79.23h30.76v-7.29h-22.16v-28.16h21.89v-7.81h-21.89V79.55h21.89v-7.82l-30.49.26zM79.68 138.8a30.36 30.36 0 1 1 .57-53.58 42.63 42.63 0 0 1 6.47-6.34 39.16 39.16 0 1 0-.72 66.43 43.52 43.52 0 0 1-6.32-6.51z"/><path class="cls-2" d="M114.69 72.45a39.16 39.16 0 1 0 39.16 39.15 39.15 39.15 0 0 0-39.16-39.15zm0 69.59a30.44 30.44 0 1 1 30.44-30.44 30.44 30.44 0 0 1-30.44 30.4zM61.4 181a13.78 13.78 0 0 1-6 1.16 10.17 10.17 0 0 1-7.4-2.73 9.49 9.49 0 0 1-2.78-7.11 9.94 9.94 0 0 1 3.13-7.64 11.17 11.17 0 0 1 7.94-2.92 13.86 13.86 0 0 1 5.11.81V165a11.3 11.3 0 0 0-5.14-1.18 8.32 8.32 0 0 0-6.06 2.27 8.08 8.08 0 0 0-2.32 6.06 7.66 7.66 0 0 0 2.17 5.74 7.76 7.76 0 0 0 5.7 2.14 11.51 11.51 0 0 0 5.65-1.32zM73.94 182.14a10 10 0 0 1-7.39-2.76 9.72 9.72 0 0 1-2.77-7.2 10.29 10.29 0 0 1 2.82-7.59 10.45 10.45 0 0 1 7.7-2.83 9.44 9.44 0 0 1 10 9.94 9.69 9.69 0 0 1-10.35 10.44zm.18-18.29a7.32 7.32 0 0 0-5.55 2.24 9.25 9.25 0 0 0 0 11.75 7.07 7.07 0 0 0 5.42 2.22 7.46 7.46 0 0 0 5.63-2.12 8.13 8.13 0 0 0 2-5.94 8.53 8.53 0 0 0-2-6 7.19 7.19 0 0 0-5.5-2.15zM100.14 181.81h-2.48l-3-5.53a12.88 12.88 0 0 0-.76-1.28 5 5 0 0 0-.79-.89 2.58 2.58 0 0 0-.86-.5 3.4 3.4 0 0 0-1-.16h-1.76v8.39h-2.08v-19.75h5.3a7 7 0 0 1 2.15.32 4.86 4.86 0 0 1 1.71 1A4.58 4.58 0 0 1 97.7 165a6 6 0 0 1 .41 2.3 6.36 6.36 0 0 1-.28 1.9 5.28 5.28 0 0 1-.79 1.53 5.22 5.22 0 0 1-1.24 1.15 6 6 0 0 1-1.63.73v.06a3.37 3.37 0 0 1 .78.5 5.06 5.06 0 0 1 .62.67 8.19 8.19 0 0 1 .59.87c.19.32.41.7.65 1.13zm-10.65-17.63v7.15h2.82a3.85 3.85 0 0 0 1.45-.26 3.15 3.15 0 0 0 1.14-.75 3.33 3.33 0 0 0 .76-1.2 4.4 4.4 0 0 0 .27-1.58 3.27 3.27 0 0 0-.92-2.47 3.73 3.73 0 0 0-2.67-.89zM112.78 181.81h-10.45v-19.72h10v2.09h-7.7v6.56h7.12v2.08h-7.12v6.9h8.14zM139.63 180.46a15.62 15.62 0 0 1-7.26 1.68 10.48 10.48 0 0 1-7.51-2.72 9.49 9.49 0 0 1-2.86-7.21 9.77 9.77 0 0 1 3.18-7.51 11.42 11.42 0 0 1 8.07-2.94 14.83 14.83 0 0 1 5.94 1.05v2.55a12.26 12.26 0 0 0-6.23-1.51 8.17 8.17 0 0 0-6 2.28 8 8 0 0 0 5.7 13.93 9.74 9.74 0 0 0 4.4-.92v-5.53h-4.75v-2.09h7.29zM156.25 181.81h-2.47l-3-5.53A12.88 12.88 0 0 0 150 175a5 5 0 0 0-.79-.89 2.73 2.73 0 0 0-.87-.5 3.29 3.29 0 0 0-1-.16h-1.71v8.39h-2.08v-19.75h5.3a7.07 7.07 0 0 1 2.15.32 4.73 4.73 0 0 1 1.7 1 4.6 4.6 0 0 1 1.14 1.64 6 6 0 0 1 .41 2.3 6.36 6.36 0 0 1-.28 1.9 5.28 5.28 0 0 1-.79 1.53 5.22 5.22 0 0 1-1.24 1.15 6.19 6.19 0 0 1-1.63.73v.06a3.3 3.3 0 0 1 .77.5 4.52 4.52 0 0 1 .63.67 8.19 8.19 0 0 1 .59.87c.19.32.41.7.64 1.13zm-10.64-17.63v7.15h2.82a3.76 3.76 0 0 0 1.44-.26 3.1 3.1 0 0 0 1.15-.75 3.31 3.31 0 0 0 .75-1.2 4.19 4.19 0 0 0 .28-1.58 3.24 3.24 0 0 0-.93-2.47 3.68 3.68 0 0 0-2.66-.89zM167.45 182.14a10 10 0 0 1-7.39-2.76 9.73 9.73 0 0 1-2.78-7.2 10.29 10.29 0 0 1 2.83-7.59 10.43 10.43 0 0 1 7.7-2.83 9.43 9.43 0 0 1 10 9.94 10.35 10.35 0 0 1-2.81 7.64 10.24 10.24 0 0 1-7.55 2.8zm.18-18.29a7.32 7.32 0 0 0-5.55 2.24 9.23 9.23 0 0 0-.06 11.75 7.11 7.11 0 0 0 5.43 2.22 7.43 7.43 0 0 0 5.62-2.12 8.14 8.14 0 0 0 2.06-5.92 8.53 8.53 0 0 0-2-6 7.16 7.16 0 0 0-5.5-2.17zM195.6 173.84q0 8.29-7.49 8.3-7.19 0-7.18-8v-12.05h2.31V174q0 6.06 5.12 6.06 4.94 0 4.93-5.85v-12.12h2.31zM201.78 174.36v7.45h-2.08v-19.72h4.88a6 6 0 0 1 4.41 1.54 5.85 5.85 0 0 1 1.57 4.35 6.06 6.06 0 0 1-6.44 6.38zm0-10.18v8.09H204a4.56 4.56 0 0 0 3.29-1.1 4.09 4.09 0 0 0 1.13-3.08q0-3.92-4.16-3.91z"/></g></g></svg>